<?xml version="1.0" standalone="no"?>
<!DOCTYPE svg PUBLIC "-//W3C//DTD SVG 20010904//EN"
 "http://www.w3.org/TR/2001/REC-SVG-20010904/DTD/svg10.dtd">
<svg version="1.0" xmlns="http://www.w3.org/2000/svg"
 width="700.000000pt" height="700.000000pt" viewBox="0 0 700.000000 700.000000"
 preserveAspectRatio="xMidYMid meet">
<metadata>
Created by potrace 1.11, written by Peter Selinger 2001-2013
</metadata>
<g transform="translate(0.000000,700.000000) scale(0.100000,-0.100000)"
fill="#000000" stroke="none">
<path d="M3447 6563 c-1 -1 -56 -4 -122 -7 -66 -3 -131 -8 -145 -10 -14 -2
-50 -7 -80 -11 -93 -11 -102 -13 -210 -35 -187 -38 -393 -100 -555 -167 -227
-94 -543 -273 -579 -329 -32 -47 -15 -118 34 -147 49 -29 83 -22 183 41 189
120 403 223 607 292 113 38 271 82 340 94 19 3 46 8 60 11 235 48 611 62 840
30 14 -2 48 -6 75 -10 42 -5 132 -21 220 -39 207 -43 474 -140 682 -248 453
-234 815 -562 1089 -983 200 -306 365 -720 409 -1025 4 -24 8 -47 10 -50 2 -3
6 -34 10 -70 3 -35 8 -67 10 -70 14 -23 22 -431 10 -547 -20 -200 -25 -231
-70 -455 -11 -53 -53 -189 -92 -298 -304 -843 -1013 -1509 -1874 -1759 -97
-28 -201 -53 -281 -66 -18 -3 -40 -8 -48 -10 -16 -4 -36 -7 -250 -31 -99 -11
-431 -4 -540 11 -19 3 -57 7 -84 10 -201 24 -483 103 -726 205 -193 80 -483
255 -633 379 -351 294 -582 575 -770 941 -74 143 -162 363 -191 474 -8 31 -17
60 -20 64 -7 11 -63 286 -71 347 -3 27 -8 72 -11 100 -3 27 -7 70 -10 95 -2
25 -5 117 -5 205 0 148 3 217 16 320 2 22 7 63 10 90 20 164 94 445 167 635
84 217 250 509 395 695 56 72 122 148 212 245 31 34 53 68 57 89 14 71 -51
135 -124 124 -36 -6 -78 -44 -201 -183 -114 -128 -260 -330 -342 -472 -66
-115 -180 -360 -224 -483 -101 -279 -152 -521 -180 -840 -6 -72 -6 -372 0
-435 2 -25 7 -72 10 -105 8 -83 15 -129 30 -210 8 -38 17 -86 20 -105 11 -66
64 -255 104 -372 144 -415 390 -810 703 -1128 121 -122 163 -160 332 -297 42
-34 235 -163 311 -208 294 -173 692 -320 1005 -369 19 -3 46 -8 60 -10 266
-46 568 -49 880 -10 103 13 142 19 245 39 17 3 81 19 143 36 614 164 1144 502
1557 992 261 310 451 655 575 1042 33 104 84 311 94 380 3 22 8 51 10 65 5 26
10 68 21 155 27 227 17 612 -21 810 -4 22 -11 64 -19 109 -9 58 -57 243 -87
336 -155 484 -416 905 -778 1258 -342 334 -748 579 -1205 727 -156 51 -404
106 -535 120 -36 4 -72 9 -81 10 -38 8 -367 24 -372 18z"/>
<path d="M3377 5904 c-1 -1 -38 -5 -82 -8 -371 -27 -792 -172 -1110 -384 -156
-105 -258 -187 -383 -312 -127 -127 -204 -220 -308 -377 -68 -100 -193 -334
-224 -418 -4 -11 -15 -38 -24 -60 -8 -22 -31 -92 -50 -155 -140 -471 -135
-964 16 -1428 141 -437 412 -835 758 -1116 41 -33 77 -63 80 -66 10 -11 188
-129 240 -160 78 -45 297 -150 313 -150 7 0 17 -4 23 -9 20 -19 308 -104 429
-126 209 -38 446 -49 659 -32 87 7 103 10 251 37 399 75 820 284 1129 560 150
134 311 321 414 480 30 47 63 96 72 110 29 44 97 183 138 280 248 590 249
1270 2 1856 -227 539 -643 979 -1165 1233 -199 97 -419 171 -610 206 -160 28
-256 37 -428 39 -76 1 -139 1 -140 0z m348 -228 c504 -58 955 -271 1305 -618
336 -332 541 -724 626 -1193 39 -217 39 -516 -2 -735 -8 -47 -18 -98 -21 -115
-12 -68 -77 -267 -122 -372 -170 -397 -456 -737 -821 -975 -114 -74 -239 -141
-340 -182 -36 -15 -73 -31 -82 -36 -10 -6 -26 -10 -36 -10 -10 0 -22 -4 -28
-9 -14 -12 -227 -68 -330 -86 -177 -30 -409 -38 -594 -21 -581 54 -1158 377
-1514 848 -31 40 -60 78 -64 83 -4 6 -33 51 -64 101 -349 564 -419 1255 -193
1894 72 203 239 489 385 660 228 265 515 478 810 600 41 17 84 35 95 40 42 18
226 73 285 84 14 2 61 12 105 20 155 30 438 40 600 22z"/>
<path d="M3100 4999 c-36 -37 -39 -56 -38 -249 l1 -155 -269 -1 c-148 -1 -281
-2 -295 -3 -16 -1 -40 -14 -58 -33 -44 -45 -44 -104 0 -147 35 -35 21 -33 239
-35 l164 -1 1 -865 c0 -476 -1 -870 -2 -875 -2 -6 -65 -10 -166 -10 -196 1
-200 0 -237 -37 -43 -42 -42 -102 1 -146 19 -19 42 -32 58 -33 14 0 146 -1
294 -2 232 -1 267 -3 268 -17 0 -8 1 -89 2 -180 3 -179 9 -204 63 -228 45 -21
80 -14 118 22 31 29 36 40 37 82 0 27 1 110 2 184 l2 135 107 0 106 1 4 -79
c3 -74 5 -81 36 -108 57 -51 139 -32 168 38 8 18 14 59 14 90 l0 59 238 1
c269 1 318 5 405 34 228 76 410 291 442 524 46 333 -157 641 -483 731 l-60 17
24 36 c77 116 107 284 74 422 -33 141 -145 288 -267 352 -95 49 -163 66 -275
69 l-98 3 -1 40 c-1 97 -7 119 -41 148 -52 44 -123 33 -158 -25 -15 -24 -20
-51 -20 -99 l0 -65 -109 -1 -109 0 0 171 c-1 95 -5 183 -10 196 -16 41 -49 63
-97 66 -38 2 -49 -2 -75 -27z m855 -653 c287 -129 255 -527 -49 -617 -16 -5
-144 -9 -284 -9 -285 -1 -297 -4 -328 -68 -13 -29 -14 -39 -2 -74 25 -77 21
-76 523 -81 350 -3 447 -6 475 -18 114 -46 207 -125 252 -213 123 -241 8 -525
-251 -618 -53 -20 -82 -21 -631 -22 -316 -1 -580 -1 -586 1 -8 3 -11 252 -11
876 l0 873 416 -2 416 -1 60 -27z"/>
</g>
</svg>
